<?xml version="1.0" encoding="UTF-8"?>
<svg id="Layer_2" xmlns="http://www.w3.org/2000/svg" viewBox="0 0 27.54 324.39">
  <g id="Layer_2-2">
    <g>
      <path d="M0,323.56V.41h.54v323.13c-.18,0-.36,0-.54,0h0Z"/>
      <path d="M2.51,323.56V.36h.45v323.16c-.15,0-.3.02-.45.03h0Z"/>
      <path d="M27.05,323.53V.39h.49v323.11c-.16,0-.33.02-.49.03Z"/>
      <path d="M24.62,323.26V.44h.49v322.82h-.49Z"/>
      <path d="M12.27,232.58c-.42,1.05-.84,2.1-1.25,3.15.93.28,2.5,1.05,2.69.75.66-1.04,1.47-2.79,1.08-3.61-.52-1.08-2.08-2.04-3.27-2.16-1.95-.2-3.2,1.31-3.65,3.4-.53,2.49.59,5.12,2.58,6.28,2.24,1.31,5.55.74,7.43-1.28,4.04-4.36,2.19-12.27-3.51-14.46-3.05-1.17-5.54-2.87-6.9-6.21-1.42-3.46-.83-7.86,1.44-10.45,2.11-2.4,5.56-3.18,8.3-1.87,2.82,1.34,4.3,4.67,3.52,7.89-.7,2.88-2.96,4.5-5.69,4.07-1.89-.3-3.24-1.57-3.29-3.52-.03-1.42.59-3.28,1.53-4.15.69-.64,2.55-.35,3.56.22.62.35,1.03,2.14.79,3.05-.23.85-1.44,1.38-2.21,2.06l-.45-.62c.09-.22.16-.46.29-.64.5-.7,1.03-1.37,1.55-2.05-.6-.53-1.28-1.57-1.79-1.48-.84.15-2.19,1-2.21,1.6-.04,1.27.35,3.33,1.09,3.68,1.24.57,3.19.6,4.33-.12,2.63-1.67,2.27-6.32-.39-8.38-3.73-2.89-9.19-.23-10.02,4.87-.79,4.93,1.58,9.07,6.42,10.84,3.9,1.43,6.07,4.36,6.67,8.69.89,6.49-4.54,11.65-10.01,9.61-2.56-.96-4.12-3.36-4.13-6.5,0-2.66,1.09-4.85,3.47-5.31,1.51-.29,3.56.18,4.74,1.19.85.73,1.05,2.97.84,4.42-.29,1.97-2.69,3.16-4.12,2.08-.88-.67-1.6-2.27-1.6-3.44,0-.77,1.43-1.53,2.21-2.3,0,.23-.02.47-.03.7h-.01Z"/>
      <path d="M12.33,190.89c-.51,1.75-.84,2.88-1.16,4.01.9.19,2,.83,2.67.48,1.49-.78,1.88-2.56.89-3.92-.71-.97-2.36-2.05-3.22-1.75-1.37.47-3.03,1.79-3.51,3.19-1.39,4.03,2.27,7.87,6.38,7.02,3.11-.64,5.22-3.13,5.53-6.5.4-4.36-1.75-8.23-5.31-9.85-1.67-.76-3.46-1.49-4.81-2.73-5.09-4.66-3.72-13.69,2.32-16.05,3-1.17,6.45.18,8.01,3.15,1.4,2.66,1.05,6.35-1.19,7.86-1.27.85-3.23,1.3-4.62.88-1.12-.34-2.27-2.1-2.66-3.49-.68-2.39,1.27-4.88,3.41-4.36,1.07.26,2.43,1.67,2.68,2.81.38,1.75-.89,2.7-2.96,2.65.36-.49.52-.7.68-.92.45-.65,1.23-1.3,1.25-1.97.02-.51-.91-1.52-1.41-1.51-.8,0-1.94.46-2.29,1.12-.42.8-.52,2.29-.1,3,.56.92,1.73,1.78,2.73,1.93,1.92.29,3.36-.86,4.05-2.9.79-2.33-.11-5.14-2.02-6.5-3.86-2.74-9.1,0-9.9,5.19-.72,4.66,1.71,8.82,6.14,10.52,5.47,2.1,8.05,7.01,6.71,12.79-.94,4.08-5.13,6.82-8.96,5.87-3.54-.88-5.52-4.38-4.7-8.3.54-2.58,2.73-4.33,5.18-4.14,2.26.18,4.01,1.76,3.92,4.09-.05,1.27-.74,2.84-1.62,3.63-.68.6-2.44.67-3.12.1-.79-.65-1.3-2.29-1.2-3.42.07-.74,1.45-1.33,2.22-1.97h-.01Z"/>
      <path d="M12.29,273.43c-.45,1.42-.81,2.53-1.16,3.64.89.21,1.95.87,2.62.55,1.53-.72,1.98-2.53,1.02-3.87-.75-1.04-2.29-1.91-3.48-1.92-1.88,0-3.17,1.49-3.49,3.64-.34,2.26.34,4.18,2.01,5.55,1.91,1.56,4.06,1.55,6.16.54,2.41-1.15,3.73-3.24,3.95-6.14.28-3.68-.93-6.64-3.74-8.67-1.02-.74-2.28-1.06-3.42-1.6-3.58-1.69-5.74-4.56-6.07-8.9-.27-3.57.92-6.48,3.69-8.39,2.44-1.68,5.09-1.79,7.58-.15,2.28,1.5,3.15,3.92,2.86,6.8-.23,2.21-1.39,3.96-3.29,4.33-1.46.29-3.31-.03-4.59-.84-1.67-1.05-2.09-3.34-.98-5.03.72-1.08,2.43-1.93,3.65-1.86.79.04,1.98,1.86,2.11,3.01.18,1.51-.91,2.55-2.75,2.29.23-.38.35-.58.47-.77.44-.76,1.22-1.53,1.2-2.28-.02-.49-1.28-1.42-1.82-1.3-.82.19-1.84.96-2.18,1.77-.77,1.89.68,4.07,2.65,4.34,2.43.34,4.57-1.74,4.64-4.5.06-2.6-1.33-4.78-3.59-5.63-2.56-.96-5.51.03-7.17,2.4-3.04,4.33-1.38,11.09,3.29,13.39,1.21.6,2.51,1.01,3.69,1.66,3.51,1.93,5.5,6.81,4.61,11.14-.79,3.88-3.68,6.52-7.28,6.66-4.47.18-7.66-4.01-6.56-8.61.58-2.42,2.73-4.19,5.02-4.04,2.13.14,3.63,1.24,4.13,3.63.62,2.96-1.69,5.6-4.17,4.51-.92-.41-1.84-2.06-1.91-3.21-.12-1.76,1.18-2.35,2.28-2.12l.02-.02Z"/>
      <path d="M14.84,133.68c.1-.9.08-1.04.13-1.08.96-.72,2.66-1.15,1.51-2.91-.41-.63-1.81-.99-2.55-.73-1.54.52-1.79,2.06-1.27,3.6.6,1.76,1.88,2.51,3.57,2.3,1.96-.25,3.18-1.51,3.6-3.6.52-2.53-.81-5.32-2.95-6.31-2.76-1.29-6.09-.31-7.85,2.3-2.46,3.65-1.61,9.41,1.92,12.19,1.12.88,2.5,1.4,3.81,1.96,3.59,1.53,6.12,5.33,6.19,9.44.07,4.05-1.77,7.2-5.03,8.63-3.03,1.32-6.48.22-8.19-2.61-1.51-2.49-1.41-6.31.68-7.92,1.27-.98,3.27-1.54,4.76-1.23,1.12.23,2.36,1.99,2.8,3.36.83,2.61-1.27,4.98-3.72,4.58-1.68-.28-2.51-1.45-2.35-3.25.15-1.76,1.13-2.5,2.91-2.16-.17.33-.25.54-.36.72-.49.78-.99,1.55-1.48,2.32.65.46,1.41,1.41,1.92,1.26.82-.24,2.02-1.16,2.05-1.84.04-1.19-.43-3.17-1.15-3.46-1.29-.52-3.24-.61-4.33.14-2.94,2.04-2.1,7.3,1.24,8.95,2.38,1.18,5.3.59,7.17-1.44,2.07-2.24,2.75-6.12,1.59-9.13-1.15-2.97-3.24-4.72-6.01-5.72-5.08-1.83-7.6-6.77-6.47-12.46.75-3.8,4.33-6.56,8.06-6.24,3.2.28,5.62,2.91,5.85,6.34.28,4.13-2.92,7.19-6.39,6.07-1.91-.62-3.13-2.22-2.86-4.25.18-1.36,1.25-2.96,2.35-3.64.71-.44,2.39.29,3.24,1.04.51.45.61,2.11.27,2.9-.33.76-1.47,1.1-2.63,1.88h-.03Z"/>
      <path d="M12.32,314.75c-.46,1.11-.89,2.13-1.31,3.15.84.34,2.26,1.17,2.43.93.73-1,1.77-2.76,1.42-3.44-.61-1.17-2.13-2.32-3.35-2.45-1.88-.2-3.21,1.32-3.69,3.39-.9,3.91,2.35,7.53,6.22,6.97,2.9-.41,5.24-2.82,5.81-5.95.7-3.88-.96-7.97-4.06-9.78-1.17-.68-2.47-1.07-3.68-1.68-5.27-2.64-7.12-10.11-3.73-14.97,2.12-3.04,6.15-4.09,9.21-2.4,2.56,1.41,3.87,4.81,3.06,7.9-1.01,3.89-5.5,5.36-7.96,2.55-1.35-1.54-1.84-3.6-.55-5.19.8-1,2.54-1.58,3.79-1.46.72.07,1.78,1.89,1.82,2.97.07,1.64-1.13,2.44-2.74,2.19.03-.3,0-.49.06-.6.55-.84,1.12-1.67,1.69-2.51-.75-.43-1.79-1.42-2.2-1.17-.86.52-1.88,1.64-1.97,2.61-.19,1.98,1.03,3.17,2.87,3.39,2.14.25,4.01-1.23,4.38-3.52.36-2.23-.19-4.18-1.87-5.6-1.8-1.52-3.82-1.75-5.9-.84-2.74,1.2-4.24,3.46-4.37,6.69-.15,3.77,1.19,6.76,4.24,8.65.93.58,2,.89,3,1.33,4.79,2.11,7.14,7.67,5.5,13.01-1.25,4.04-5.51,6.38-9.34,5.13-3.18-1.04-4.98-4.59-4.16-8.21.57-2.53,2.84-4.33,5.21-4.13,2.27.19,3.88,1.97,3.99,4.42.11,2.67-2.05,4.79-4.21,3.75-.93-.45-1.76-2.04-1.94-3.23-.23-1.53.7-2,2.34-1.91h-.01Z"/>
      <path d="M12.29,109.02c-.48,1.37-.84,2.43-1.21,3.48.79.31,1.67,1.01,2.37.84,1.6-.38,2.19-2.03,1.5-3.39-.58-1.16-2.11-2.65-3.02-2.5-1.4.22-3.13,1.42-3.81,2.75-1.41,2.74.46,6.36,3.35,7.31,2.5.82,5.28-.12,6.98-2.38,1.83-2.42,2.37-6.83.46-9.46-1.46-2.01-3.62-3.72-5.79-4.76-4.78-2.29-7.3-7.02-6.1-12.52.9-4.09,4.61-6.7,8.6-6.05,3.28.54,5.49,3.51,5.28,7.11-.25,4.21-4.18,6.74-7.39,4.69-1.83-1.17-2.33-3.05-1.77-5.19.52-2,2.09-2.92,3.67-2.3,1.03.4,2.21,2.01,2.3,3.17.13,1.65-1.15,2.55-2.91,2.11.16-.32.22-.48.31-.62.52-.84,1.05-1.68,1.57-2.52-.76-.39-1.81-1.32-2.21-1.06-.84.54-1.86,1.72-1.85,2.64,0,1.03.91,2.74,1.67,2.92,1.29.31,3.34.18,4.05-.73.97-1.24,1.49-3.44,1.31-5.11-.27-2.47-2.14-3.82-4.41-4.13-2.73-.38-4.93.72-6.41,3.26-1.74,2.98-1.81,6.33.06,8.99,1.42,2.02,3.68,3.62,5.86,4.67,4.67,2.24,7.24,7.35,5.85,12.64-1.3,4.93-6.57,7.48-10.6,5.13-2.59-1.51-3.89-5.12-2.94-8.22.75-2.48,3.35-4.02,5.83-3.48,2.23.49,3.64,2.88,3.16,5.35-.4,2.08-2.02,3.28-3.88,2.84-1.64-.39-2.44-1.59-2.22-3.38.21-1.73,1.17-2.44,2.36-2.13l-.02.03Z"/>
      <path d="M15.01,50.6c.13-.19.26-.39.38-.58.45-.72,1.15-1.41,1.24-2.19.05-.4-1.05-1.37-1.56-1.32-.79.08-1.8.61-2.23,1.31-1.19,1.92.42,4.66,2.72,4.86,2.28.2,4.13-1.61,4.34-4.23.24-3.12-1.69-5.8-4.51-6.15-2.58-.32-4.8.42-6.35,2.85-1.66,2.61-1.85,5.46-.74,8.32,1.06,2.72,2.92,4.54,5.59,5.43,4.05,1.34,6.49,4.33,7.01,8.98.72,6.44-4.58,11.5-9.91,9.48-2.48-.94-3.98-2.86-4.23-5.83-.21-2.53.65-4.48,2.65-5.73,1.74-1.08,3.79-1.21,5.08.42.93,1.18,1.48,3.27,1.26,4.78-.15,1-1.89,2.14-3.06,2.39-.75.16-2.13-.98-2.59-1.91-.95-1.96.28-3.43,2.52-3.3-.03.16-.02.36-.1.49-.5.86-1.03,1.7-1.54,2.55.68.4,1.65,1.32,1.99,1.09.87-.57,1.91-1.56,2.06-2.54.3-1.82-.8-3.08-2.48-3.5-1.86-.47-3.96.83-4.58,2.87-.7,2.3-.21,4.37,1.4,5.99,1.93,1.95,4.23,2.04,6.53.97,2.62-1.22,3.94-3.54,4.05-6.65.14-3.82-1.29-6.73-4.33-8.58-1.3-.79-2.8-1.19-4.11-1.96-5.72-3.35-6.56-12.23-1.58-16.26,2.4-1.94,6.21-2.04,8.46-.23,2.09,1.67,3.02,4.88,2.22,7.58-.73,2.44-2.85,3.95-5.23,3.68-2.18-.25-3.56-1.56-3.82-3.95-.21-1.88.39-3.73,2.19-4.03,1.14-.19,2.58.57,3.62,1.33.43.31.44,1.95.09,2.67-.34.7-1.38,1-2.11,1.48-.11-.19-.22-.39-.34-.58Z"/>
      <path d="M15.21,9.86c.56-1.31,1-2.34,1.43-3.37-.93-.32-2.03-1.16-2.75-.87-1.57.64-1.96,2.41-1.07,3.85.6.98,2,2.1,2.91,1.97,1.29-.18,3.12-1.16,3.52-2.3.54-1.55.36-3.77-.25-5.36-.84-2.19-2.91-2.86-5.06-2.7-3.06.22-5.48,2.57-6.13,5.85-.77,3.94.93,8.13,4.16,9.98,1.1.63,2.33.98,3.46,1.55,4.46,2.22,6.61,7.83,4.96,12.83-1.34,4.05-5.65,6.35-9.38,5-3.26-1.18-4.94-4.58-4.07-8.25.64-2.72,3.31-4.56,5.76-3.98,2.3.55,3.7,2.8,3.3,5.3-.41,2.59-3.14,4.07-4.9,2.45-.72-.66-1.17-2.24-1.01-3.27.12-.79,1.38-1.38,2.13-2.06l.41.56c-.05.15-.07.32-.15.46-.5.88-1.01,1.75-1.52,2.63.76.38,1.86,1.29,2.23,1.02.83-.61,1.86-1.88,1.77-2.75-.12-1.1-1.24-2.89-1.97-2.92-1.47-.06-3.42.41-4.36,1.5-2.16,2.52-.67,6.95,2.46,8.21,2.64,1.06,5.64.11,7.41-2.35,1.96-2.73,2.16-7.41-.08-10.18-1.36-1.68-3.3-3.04-5.22-3.89-5.97-2.64-8.47-9.98-5.01-15.37C10.22.24,14.45-.93,17.58.79c2.64,1.45,3.94,5.04,2.97,8.18-.71,2.31-2.81,3.88-5.01,3.68-2.04-.18-3.44-1.31-3.93-3.55-.66-2.98,1.59-5.65,4.08-4.59.94.4,1.94,2.03,2.01,3.15.09,1.6-1.16,2.39-2.5,2.2h0Z"/>
    </g>
  </g>
</svg>