<?xml version="1.0" encoding="UTF-8"?>
<svg id="Layer_2" xmlns="http://www.w3.org/2000/svg" viewBox="0 0 53 592.72">
  <path d="M11,592.72c1.7-.4,3.39-1.1,5.1-1.15,6-.15,12-.15,18-.04,2.98.05,4.19-1.1,4.1-4.13-.15-5.33-.16-10.67,0-16,.12-4.25-2.76-3.72-5.42-3.78-2.67-.06-5.1-.03-4.89,3.79.18,3.28.04,6.58.04,10.17H11.59v-29.66c7.12,0,14.08-.26,21,.09,4.44.22,5.95-1.24,5.63-5.64-.34-4.64-.25-9.34-.02-13.99.21-4.19-2.41-3.9-5.21-3.92-2.88-.03-5.43-.06-5.18,4.01.19,3.11.04,6.24.04,10.08-5.08,0-9.54.19-13.95-.15-.96-.08-2.5-2.06-2.53-3.2-.23-7.83-.07-15.66-.18-23.49-.04-2.94,1.69-3.15,3.89-3.14,6.33.02,12.67-.12,19,.03,3.05.07,4.17-1.1,4.09-4.1-.14-5.33-.17-10.67,0-16,.1-3.44-1.93-3.83-4.5-3.64-2.44.19-5.78-1.02-5.75,3.4,0,.33.01.67-.02,1-.32,3.23.09,8.87-1.12,9.24-4.11,1.27-8.8.82-13.26.68-.78-.02-2.13-1.68-2.15-2.6-.18-8-.27-16,.04-23.99.04-1.09,2.38-2.92,3.74-2.99,6.32-.34,12.66-.28,18.99-.18,3.01.05,4.15-1.13,4.05-4.14-.16-5.33-.18-10.67,0-16,.14-4.41-2.87-3.56-5.44-3.64-2.64-.09-4.83-.15-4.97,3.69-.39,10.6-.55,10.4-10.98,10.55-4.28.06-5.95-1.05-5.67-5.59.39-6.48.38-13.01.02-19.49-.23-4.23,1.5-5.11,5.22-4.97,5.82.22,11.67-.08,17.49.09,3.22.09,4.49-1.03,4.37-4.31-.19-5.16-.22-10.34,0-15.49.15-3.78-2.09-3.93-4.81-3.86-2.63.07-5.49-.57-5.56,3.68-.05,3.38-.06,9.41-1.13,9.65-4.7,1.07-9.79.46-15.46.46,0-9.17-.11-18.09.17-27,.03-.87,2.47-2.33,3.84-2.39,5.99-.27,12-.25,17.99-.07,3.55.11,5.19-.92,4.96-4.8-.29-4.98-.19-10-.03-14.99.15-4.56-2.95-3.84-5.76-4.01-3-.18-4.54.55-4.66,4.04-.36,10.4-.5,10.18-11.15,10.28-4.45.04-5.77-1.37-5.51-5.73.37-6.31.31-12.67.03-18.99-.18-4.03.96-5.74,5.25-5.5,5.65.32,11.33-.04,16.99.14,3.28.1,4.96-.73,4.79-4.42-.23-5.16-.2-10.34,0-15.49.14-3.87-2.22-3.81-4.89-3.68-2.56.13-5.75-.74-5.44,3.65.01.17.02.34,0,.5-.37,3.21-.04,8.82-1.26,9.19-4.14,1.23-8.84.73-13.32.56-.72-.03-1.96-1.76-1.97-2.73-.16-8.64-.09-17.29-.09-26.86,7.1,0,13.86-.31,20.59.1,5.02.31,6.95-1.2,6.46-6.37-.43-4.63-.23-9.33-.08-13.99.11-3.43-1.93-3.82-4.51-3.64-2.46.17-5.77-.98-5.8,3.37-.02,3.32,0,6.64,0,10.39H11.28c0-9.12-.11-18.07.17-27.01.03-.87,2.44-2.32,3.8-2.38,5.99-.26,12-.24,17.99-.05,3.55.11,5.21-.89,4.97-4.79-.3-4.98-.25-10-.05-14.99.17-4.34-2.76-3.68-5.37-3.8-2.68-.12-4.79-.07-5.01,3.69-.65,10.61-.8,10.39-11.06,10.59-4.45.09-5.81-1.34-5.58-5.71.34-6.48.32-13.01-.03-19.49-.22-4.15,1.46-5.14,5.19-5.01,5.99.21,12-.04,18,.08,2.78.06,3.92-.99,3.87-3.78-.1-5.33-.17-10.67,0-16,.14-4.8-3.29-3.44-5.88-3.75-3.15-.37-4.67.66-4.41,4.09.23,3.1.05,6.23.05,9.66H11.25c0-9.2-.11-18.13.18-27.04.03-.85,2.55-2.26,3.95-2.32,6.16-.26,12.33-.24,18.49-.07,3.3.09,4.42-1.21,4.31-4.41-.18-5.16-.21-10.34,0-15.49.17-4.12-2.38-3.95-5.21-4-2.95-.05-5.05.14-5.21,4.09-.41,10.12-.59,9.87-10.9,10.21-4.73.16-5.98-1.43-5.77-5.96.36-7.78.1-15.58.1-24.09,7.84,0,15.11-.15,22.37.07,3.45.1,4.78-.94,4.6-4.52-.25-4.99-.19-10,.03-14.99.17-3.95-2.1-4.24-5.09-4.14-2.76.09-5.19-.21-5.36,3.92-.43,10.51-.61,10.51-11.21,10.25-1.61-.04-3.22-.24-5.33-.41,0-9.2-.12-18,.17-26.78.03-.95,2.33-2.56,3.64-2.62,6.15-.3,12.33-.3,18.49-.14,3.34.09,4.88-.81,4.69-4.48-.27-5.15-.23-10.33-.03-15.49.13-3.48-1.86-3.84-4.44-3.65-2.46.17-5.61-1.01-5.89,3.33-.22,3.51-.12,9.67-1.4,10.01-4.6,1.22-9.73.48-15.19.48,0-9.22-.14-18.01.19-26.78.04-.99,2.66-2.63,4.15-2.7,5.98-.31,12-.28,17.99-.07,3.54.13,4.7-1.27,4.58-4.68-.19-4.99-.17-10,.02-15,.16-4.11-2.41-3.94-5.24-3.99-2.92-.05-5.02-.02-5.15,4.02-.33,10.21-.53,9.96-10.96,10.19-4.7.11-5.96-1.43-5.75-5.96.36-7.64.1-15.31.1-24.07,6.64,0,13.05-.02,19.45,0,4.99.02,7.48-2.5,7.47-7.56,0-4.17-.16-8.34,0-12.5.18-4.39-2.93-3.54-5.46-3.72-2.75-.2-4.91.07-4.88,3.8.02,3.38.6,7.9-1.25,9.81-1.64,1.7-6.28.55-9.59.57-1.77.01-3.54-.15-5.72-.25,0-9.26-.07-18.06.1-26.85.02-.9,1.42-2.52,2.2-2.53,8.82-.15,17.65-.07,26.47.03.41,0,.8.84,1.99,2.17-2.5.36-4.14.78-5.77.8-5.83.08-11.67-.13-17.49.15-1.36.07-3.76,1.57-3.8,2.5-.33,6.78-.18,13.58-.18,20.62,2.02.2,3.49.34,4.95.5,3.5.38,5.05-.81,5.08-4.69.07-9.66.26-9.66,9.79-9.65,4.49,0,6.72,2.28,6.69,6.81-.03,6.33-.15,12.67.02,18.99.09,3.08-1.04,4.11-4.05,4.05-6.16-.13-12.33.06-18.5-.02-2.97-.04-4.18,1.09-4.08,4.13.16,5.33.17,10.67,0,16-.11,3.72,2.06,3.91,4.85,3.83,2.78-.08,5.13.13,5.28-3.99.4-10.46.59-10.27,11.21-10.33,4.11-.02,5.52,1.25,5.38,5.4-.28,7.97-.08,15.96-.08,24.74-7.36,0-14.3.28-21.21-.1-4.54-.25-5.83,1.42-5.52,5.7.33,4.64.29,9.33.08,13.99-.17,3.74,1.96,3.96,4.75,3.86,2.67-.1,5.49.52,5.37-3.78-.09-3.26-.28-9.1.74-9.37,4.8-1.26,10.01-1,15.68-1.31,0,9.7.11,18.64-.17,27.57-.03.91-2.41,2.42-3.76,2.49-6.15.29-12.33.24-18.49.16-2.92-.04-4.23.97-4.13,4.07.17,5.33.15,10.67,0,16-.1,3.44,1.89,3.78,4.5,3.63,2.55-.15,5.6.73,5.67-3.58.06-3.42-.7-8.71,1.04-9.83,2.77-1.77,7.32-.77,11.12-.91,1.14-.04,2.28,0,4.15,0,0,9.63.09,18.88-.17,28.12-.02.72-2.42,1.91-3.74,1.96-6.16.22-12.33.22-18.49.09-3.03-.06-4.15,1.13-4.07,4.13.15,5.33.16,10.67.02,16-.11,4.02,2.6,3.42,5.08,3.5,2.63.08,5.15.26,5-3.61-.13-3.29-.03-6.59-.03-10.54,5.01,0,9.47-.19,13.88.15.96.08,2.5,2.06,2.53,3.19.22,7.66.26,15.33-.06,22.99-.05,1.19-2.2,3.21-3.47,3.28-6.15.36-12.32.29-18.49.17-3.1-.06-4.6.89-4.48,4.26.18,5.16.22,10.34-.03,15.49-.2,4.09,2.27,4.03,5.13,4.11,3.05.08,5.3-.31,5.05-4.21-.2-3.13-.04-6.28-.04-10.13,4.87,0,9.32-.16,13.74.13.95.06,2.53,1.71,2.56,2.67.23,7.99.12,15.99.21,23.99.04,3.31-2.2,3.2-4.41,3.2-7.15.01-14.29,0-22.11,0,0,7.4-.2,14.35.25,21.25.06.89,3.51,2.13,5.4,2.15,1.43,0,3.57-1.38,4.14-2.69.73-1.69.21-3.92.24-5.92.02-1.17-.4-2.69.17-3.44,3.39-4.42,8.21-1.25,12.34-1.88,1.13-.17,3.7,1.87,3.75,2.98.32,7.82.09,15.66.18,23.49.03,2.64-1.09,3.47-3.59,3.44-6.16-.07-12.34.19-18.49-.01-3.19-.11-4.6.77-4.48,4.14.18,5.16.23,10.34,0,15.49-.17,4.07,2.28,4.03,5.15,4.07,3.04.04,4.94-.39,5-4.27.17-10.06.36-9.8,10.42-10.13,4.84-.16,6.34,1.33,6.1,6.13-.38,7.63-.1,15.3-.1,23.88-6.94,0-13.71.28-20.43-.09-4.79-.26-6.6,1.23-6.18,6.13.39,4.63.25,9.33.02,13.99-.21,4.28,2.6,3.78,5.29,3.86,2.75.09,5.04-.09,4.85-3.83-.17-3.28-.04-6.58-.04-10.2h16.47c0,9.28.09,18.38-.16,27.47-.02.81-2.24,2.18-3.49,2.24-6.16.25-12.33.27-18.49.12-3.16-.08-4.54.89-4.41,4.24.2,5.16.15,10.33-.01,15.5-.1,3.32,1.63,3.9,4.38,3.7,2.54-.19,5.72.84,5.68-3.48,0-.5-.03-1,.03-1.5.32-2.9.15-8.11,1.07-8.31,4.44-.97,9.17-.69,13.8-.58.57,0,1.56,1.67,1.58,2.58.12,8.78.07,17.57.07,27.14-7.37,0-14.16.21-20.93-.08-4.22-.18-6.13.9-5.73,5.53.4,4.63.26,9.33.04,13.99-.18,3.75,1.69,4.39,4.88,4.4,3.31,0,5.57-.45,5.24-4.56-.24-2.96-.05-5.95-.05-9.47h16.51c0,8.97.14,17.61-.17,26.24-.04,1.1-2.36,2.95-3.72,3.03-5.98.36-12,.36-17.99.17-3.77-.12-4.94,1.32-4.73,4.99.28,4.98.21,10,.03,14.99-.13,3.66,1.95,4.01,4.77,3.93,2.71-.08,5.65.4,5.32-3.82-.01-.17,0-.33.01-.5.37-3.21-.03-8.78,1.25-9.2,3.93-1.28,8.51-.72,12.82-.55.82.03,2.23,1.58,2.25,2.45.2,8.16.29,16.33.03,24.48-.03.96-2.29,2.58-3.58,2.64-6.15.28-12.33.21-18.49.1-3.16-.06-4.53,1.12-4.42,4.4.16,5.16.2,10.34-.03,15.49-.18,4.16,2.38,3.9,5.2,3.94,3.02.05,4.98-.25,5.05-4.19.17-10.47.35-10.48,11.08-10.37,1.62.02,3.25.18,5.3.3,0,9.11.11,17.9-.16,26.68-.03.99-2.19,2.67-3.43,2.74-5.98.33-12,.45-17.99.2-4.08-.17-5.18,1.42-4.97,5.25.27,4.98.17,10-.06,14.99-.16,3.52,1.88,3.76,4.45,3.6,2.5-.16,5.75.88,5.67-3.49,0-.17,0-.33.02-.5.38-3.37-.23-8.95,1.36-9.66,3.49-1.58,8.09-.87,12.23-.7.99.04,2.72,1.61,2.74,2.5.21,8.95.12,17.91.12,27.43H14.78c0,7.47-.21,14.42.25,21.32.06.94,3.48,2.25,5.37,2.29,1.41.03,3.21-1.43,4.18-2.72.65-.85.18-2.57.17-3.91-.02-7.45-.02-7.53,7.62-7.47,10.17.08,8.94-1.15,8.88,9.14-.04,6.37-.16,12.69-.25,19.02H11Z"/>
  <path d="M0,592.72c.04-58,.11-115.99.11-173.99C.12,281.9.11,145.07.11,8.25c0-2-.11-4.02.13-5.99C.33,1.53,1.27.91,1.83.24c.58.68,1.59,1.32,1.67,2.05.25,2.31.17,4.66.17,6.99,0,174.49-.03,348.99-.05,523.48,0,18.5,0,37,.05,55.5,0,1.49.21,2.97.33,4.46H0Z"/>
  <path d="M49,592.72V.31c.83-.1,1.66-.2,2.49-.31.31,1.79.89,3.59.9,5.38.05,26.66.02,53.33.03,79.99.04,166.32.07,332.64.13,498.97,0,2.79.29,5.58.45,8.37h-4Z"/>
</svg>