<?xml version="1.0" encoding="UTF-8"?>
<svg id="Layer_2" xmlns="http://www.w3.org/2000/svg" viewBox="0 0 476.72 284.32">
  <g id="Layer_2-2" data-name="Layer_2">
    <g>
      <path d="M317.05,284.06c0-1.21-.2-2.46.03-3.62,2.12-10.71,4.59-21.37,6.4-32.13,1.2-7.17,1.69-14.48,2.14-21.75.63-10.07,1.02-20.16,1.35-30.25.36-10.86-1.41-21.49-3.82-32.03-.46-2.01-.97-4.01-1.62-6.7-.85,2.06-1.41,3.46-2.01,4.86-5.23,12.18-12.97,22.76-21.02,33.14-9.17,11.83-19.32,22.71-30.91,32.22-12.84,10.53-27,18.62-42.55,24.49-15.24,5.76-30.64,10.99-46.37,15.15-5.49,1.45-11.31,1.97-17.01,2.26-9.07.46-18.18.22-27.26.54-12.22.44-24.06-1.28-35.83-4.6-13.76-3.87-26.72-9.3-37.89-18.25-10.46-8.38-19.79-18.04-24.24-30.99-6.25-18.16-4.12-34.9,9.99-49.24,9.52-9.69,21.01-13.27,34.21-12.36,7.97.55,15.59,2.8,22.9,5.78,12.27,5.01,19.03,14.7,19.27,27.73.27,14.72-10.28,23.18-24.34,21.91-8.13-.73-14.08-4.8-16.72-13.15,1.89,1.05,3.92,1.92,5.65,3.2,2.82,2.08,5.58,1.81,8.54.51,11.44-5.05,10.05-16.25,5.46-22.79-4.69-6.68-11.23-9.68-19.34-10.42-18.63-1.7-32.24,15.46-30.47,33.42,1.19,12.11,7.05,21.58,15.9,29.33,9.74,8.54,20.82,15.01,33.38,18.36,6.32,1.69,12.94,2.41,19.47,3.1,13.66,1.45,27.35.54,40.91-1.01,15.88-1.81,31.61-4.96,46.43-11.13,12.4-5.16,24.1-11.85,35.37-19.18,16.35-10.64,30.49-23.73,42.25-39.31,4.51-5.98,7.82-12.66,10.51-19.65,1.44-3.75,2.95-7.47,4.61-11.66-2.43.18-4.48.43-6.53.45-17.4.17-34.81,1.14-52.18-.44-19.27-1.76-37.94-6.04-55.42-14.7-16.8-8.32-34.1-15.33-52.59-18.87-8.21-1.57-16.53-2.61-24.84-3.58-15.77-1.85-31.66-2.72-47.17-6.59-20.41-5.09-36.59-16.47-49.67-32.64-3.61-4.46-7.23-8.92-10.71-13.48-.72-.94-.87-2.33-1.28-3.5l.63-.38c1.25,1.09,2.47,2.2,3.75,3.26,8.22,6.82,17.06,12.66,26.76,17.14,9.43,4.36,19.27,7.14,29.68,8.07,11.48,1.02,22.99,1.51,34.42.25,11.62-1.29,23.19-3.15,34.69-5.29,11.8-2.19,23.54-4.78,35.2-7.64,8.94-2.2,17.68-5.17,26.55-7.68,16.03-4.53,32.02-9.2,48.15-13.34,5.58-1.43,11.5-1.82,17.29-2.1,14.68-.69,29.29-.11,43.77,2.94,14.05,2.96,27.25,8.18,40.38,13.83,16.07,6.93,31.22,15.6,46.62,23.8,15.42,8.2,30.98,16.08,47.3,22.36,3.11,1.2,6.26,2.28,9.42,3.34,2.47.83,4,2.48,4.98,4.85,1.57,3.78,3.3,7.5,4.87,11.28.29.71.48,1.9.11,2.33-.42.47-1.62.61-2.34.4-2-.59-3.87-1.66-5.88-2.13-9.8-2.27-19.57-4.66-29.45-6.51-8.91-1.67-17.94-1.54-26.84.46-11.25,2.53-21.56,6.93-28.37,16.77-8.82,12.74-10.86,26.14-2.8,40.2,3.83,6.68,8.44,12.63,14.59,17.35,3.29,2.52,3.23,3.87-.24,6.1-4.96,3.19-10.06,6.15-14.97,9.41-11.29,7.49-19.21,17.8-24.28,30.24-4.79,11.77-9.18,23.7-13.8,35.54-.42,1.08-1.26,1.99-1.91,2.98-.41-.08-.82-.17-1.24-.25ZM326.07,76.38c-.22.23-.44.47-.66.7.43,1.37.85,2.75,1.29,4.12,1.93,5.98,2.73,12.07.05,17.95-6.18,13.58-16.61,21.54-31.66,22.87-14.21,1.25-26.85-2.81-37.91-11.74-11.99-9.67-14.72-23.57-7.39-37.07.43-.79.78-1.63,1.11-2.33-31.7,9.64-63.35,19.27-94.99,28.89,2.9,1.39,5.89,2.07,8.72,3.17,10.98,4.27,21.7,9.32,32.9,12.85,15.56,4.91,31.4,9.01,47.27,12.88,11.67,2.84,23.59,4.78,35.67,4.66,7.2-.07,14.45-.42,21.57-1.42,9.73-1.36,19.45-3.04,28.99-5.35,16.25-3.93,32.35-8.51,48.54-12.72,5.2-1.35,10.47-2.41,15.71-3.61.06-.18.13-.37.19-.55-22.18-13.09-46.36-22-69.39-33.32Z"/>
      <path d="M17.17,8.25c2.26,1.09,4.51,2.23,6.8,3.27,9.94,4.54,19.74,9.46,29.89,13.47,10.05,3.97,20.77,5.59,31.5,6.83,5.55.64,11.08,1.54,16.64,1.85,5.25.3,10.56.32,15.79-.14,9.42-.82,18.81-2.05,28.2-3.18,23.29-2.79,45.73-8.84,67.75-16.9,13.82-5.06,28.04-9.12,42.73-10.91,12.71-1.55,25.46-2.94,38.31-2.44,15.24.59,29.95,3.71,44.29,8.93,6.61,2.41,12.86,5.43,18.81,9.12,6.27,3.88,12.72,7.52,18.72,11.8,16.1,11.47,33.99,18.65,53.27,22.26,12.71,2.38,25.58,3.87,38.39,5.67,2.95.41,5.22,1.61,6.3,4.42.88,2.29,1.85,4.65,2.11,7.06.42,3.92-1.49,6.18-5.48,6.88-2.2.38-4.48.56-6.7.43-22.29-1.32-44.02-5.93-64.88-13.57-16.14-5.91-31.6-13.67-47.33-20.67-19.42-8.65-39.38-15.56-60.48-18.7-9.47-1.41-18.92-.42-28.24,1.43-24.39,4.85-48.77,9.75-73.11,14.82-10.3,2.15-20.46,5.04-30.77,7.14-13.78,2.81-27.75,2.99-41.74,1.85-7.88-.64-15.77-1.34-23.62-2.23-9.08-1.04-17.62-4.14-26.17-7.22-12.81-4.61-25.33-9.86-36.69-17.48-5.08-3.4-10.27-6.77-13.78-12.02-.28-.42-.55-.85-.82-1.27l.31-.47Z"/>
    </g>
  </g>
</svg>